<svg width="26" height="10" viewBox="0 0 26 10" fill="none" xmlns="http://www.w3.org/2000/svg">
<path d="M0.607411 4.60741C0.39059 4.82423 0.39059 5.17577 0.607411 5.39259L4.14071 8.92589C4.35753 9.14271 4.70907 9.14271 4.92589 8.92589C5.14271 8.70907 5.14271 8.35753 4.92589 8.14071L1.78518 5L4.92589 1.85929C5.14271 1.64247 5.14271 1.29093 4.92589 1.07411C4.70907 0.857287 4.35753 0.857287 4.14071 1.07411L0.607411 4.60741ZM25 5.5552C25.3066 5.5552 25.5552 5.30663 25.5552 5C25.5552 4.69337 25.3066 4.4448 25 4.4448V5.5552ZM1 5.5552L25 5.5552V4.4448L1 4.4448L1 5.5552Z" fill="#00CFC3"/>
</svg>
