<svg width="63" height="63" viewBox="0 0 63 63" fill="none" xmlns="http://www.w3.org/2000/svg">
    <rect width="63" height="63" rx="10" fill="black" fill-opacity="0.2"/>
    <path d="M25.6126 31.5C25.1265 31.5 24.7133 31.3299 24.373 30.9896C24.0327 30.6493 23.8626 30.2361 23.8626 29.75V13.125H22.6667V11.375H28.1501V10.5H35.8501V11.375H41.3334V13.125H40.1376V29.75C40.1376 30.2167 39.9626 30.625 39.6126 30.975C39.2626 31.325 38.8542 31.5 38.3876 31.5H25.6126ZM38.3876 13.125H25.6126V29.75H38.3876V13.125ZM28.7042 27.2417H30.4542V15.6042H28.7042V27.2417ZM33.5459 27.2417H35.2959V15.6042H33.5459V27.2417ZM25.6126 13.125V29.75V13.125Z" fill="#F54968"/>
    <path d="M11.3547 44.81V47.26H14.6447V48.814H11.3547V51.404H15.0647V53H9.39471V43.214H15.0647V44.81H11.3547ZM21.1299 53L19.5339 50.592L18.1199 53H16.0199L18.5539 49.108L15.9919 45.244H18.2039L19.7859 47.638L21.2139 45.244H23.3139L20.7659 49.108L23.3419 53H21.1299ZM23.9024 49.122C23.9024 48.3193 24.0658 47.6193 24.3924 47.022C24.7191 46.4153 25.1718 45.9487 25.7504 45.622C26.3291 45.286 26.9918 45.118 27.7384 45.118C28.6998 45.118 29.4931 45.3607 30.1184 45.846C30.7531 46.322 31.1778 46.994 31.3924 47.862H29.2784C29.1664 47.526 28.9751 47.2647 28.7044 47.078C28.4431 46.882 28.1164 46.784 27.7244 46.784C27.1644 46.784 26.7211 46.9893 26.3944 47.4C26.0678 47.8013 25.9044 48.3753 25.9044 49.122C25.9044 49.8593 26.0678 50.4333 26.3944 50.844C26.7211 51.2453 27.1644 51.446 27.7244 51.446C28.5178 51.446 29.0358 51.0913 29.2784 50.382H31.3924C31.1778 51.222 30.7531 51.8893 30.1184 52.384C29.4838 52.8787 28.6904 53.126 27.7384 53.126C26.9918 53.126 26.3291 52.9627 25.7504 52.636C25.1718 52.3 24.7191 51.8333 24.3924 51.236C24.0658 50.6293 23.9024 49.9247 23.9024 49.122ZM34.7883 42.64V53H32.8283V42.64H34.7883ZM44.0468 45.244V53H42.0728V52.02C41.8208 52.356 41.4895 52.622 41.0788 52.818C40.6775 53.0047 40.2388 53.098 39.7628 53.098C39.1561 53.098 38.6195 52.972 38.1528 52.72C37.6861 52.4587 37.3175 52.0807 37.0468 51.586C36.7855 51.082 36.6548 50.4847 36.6548 49.794V45.244H38.6148V49.514C38.6148 50.13 38.7688 50.606 39.0768 50.942C39.3848 51.2687 39.8048 51.432 40.3368 51.432C40.8781 51.432 41.3028 51.2687 41.6108 50.942C41.9188 50.606 42.0728 50.13 42.0728 49.514V45.244H44.0468ZM46.9746 44.32C46.6293 44.32 46.34 44.2127 46.1066 43.998C45.8826 43.774 45.7706 43.4987 45.7706 43.172C45.7706 42.8453 45.8826 42.5747 46.1066 42.36C46.34 42.136 46.6293 42.024 46.9746 42.024C47.32 42.024 47.6046 42.136 47.8286 42.36C48.062 42.5747 48.1786 42.8453 48.1786 43.172C48.1786 43.4987 48.062 43.774 47.8286 43.998C47.6046 44.2127 47.32 44.32 46.9746 44.32ZM47.9406 45.244V53H45.9806V45.244H47.9406ZM51.8371 46.448C52.0891 46.0373 52.4158 45.7153 52.8171 45.482C53.2278 45.2487 53.6945 45.132 54.2171 45.132V47.19H53.6991C53.0831 47.19 52.6165 47.3347 52.2991 47.624C51.9911 47.9133 51.8371 48.4173 51.8371 49.136V53H49.8771V45.244H51.8371V46.448Z" fill="#F54968"/>
</svg>
