<svg width="59" height="40" viewBox="0 0 59 40" fill="none" xmlns="http://www.w3.org/2000/svg">
    <path d="M2.09397 27.81V30.26H5.38397V31.814H2.09397V34.404H5.80397V36H0.133969V26.214H5.80397V27.81H2.09397ZM11.8691 36L10.2731 33.592L8.85914 36H6.75914L9.29314 32.108L6.73114 28.244H8.94314L10.5251 30.638L11.9531 28.244H14.0531L11.5051 32.108L14.0811 36H11.8691ZM17.1057 29.364C17.3577 29.0093 17.703 28.7153 18.1417 28.482C18.5897 28.2393 19.0984 28.118 19.6677 28.118C20.3304 28.118 20.9277 28.2813 21.4597 28.608C22.001 28.9347 22.4257 29.4013 22.7337 30.008C23.051 30.6053 23.2097 31.3007 23.2097 32.094C23.2097 32.8873 23.051 33.592 22.7337 34.208C22.4257 34.8147 22.001 35.286 21.4597 35.622C20.9277 35.958 20.3304 36.126 19.6677 36.126C19.0984 36.126 18.5944 36.0093 18.1557 35.776C17.7264 35.5427 17.3764 35.2487 17.1057 34.894V39.696H15.1457V28.244H17.1057V29.364ZM21.2077 32.094C21.2077 31.6273 21.1097 31.226 20.9137 30.89C20.727 30.5447 20.475 30.2833 20.1577 30.106C19.8497 29.9287 19.5137 29.84 19.1497 29.84C18.795 29.84 18.459 29.9333 18.1417 30.12C17.8337 30.2973 17.5817 30.5587 17.3857 30.904C17.199 31.2493 17.1057 31.6553 17.1057 32.122C17.1057 32.5887 17.199 32.9947 17.3857 33.34C17.5817 33.6853 17.8337 33.9513 18.1417 34.138C18.459 34.3153 18.795 34.404 19.1497 34.404C19.5137 34.404 19.8497 34.3107 20.1577 34.124C20.475 33.9373 20.727 33.6713 20.9137 33.326C21.1097 32.9807 21.2077 32.57 21.2077 32.094ZM28.078 36.126C27.3313 36.126 26.6593 35.9627 26.062 35.636C25.4646 35.3 24.9933 34.8287 24.648 34.222C24.312 33.6153 24.144 32.9153 24.144 32.122C24.144 31.3287 24.3166 30.6287 24.662 30.022C25.0166 29.4153 25.4973 28.9487 26.104 28.622C26.7106 28.286 27.3873 28.118 28.134 28.118C28.8806 28.118 29.5573 28.286 30.164 28.622C30.7706 28.9487 31.2466 29.4153 31.592 30.022C31.9466 30.6287 32.124 31.3287 32.124 32.122C32.124 32.9153 31.942 33.6153 31.578 34.222C31.2233 34.8287 30.738 35.3 30.122 35.636C29.5153 35.9627 28.834 36.126 28.078 36.126ZM28.078 34.418C28.4326 34.418 28.764 34.334 29.072 34.166C29.3893 33.9887 29.6413 33.7273 29.828 33.382C30.0146 33.0367 30.108 32.6167 30.108 32.122C30.108 31.3847 29.912 30.82 29.52 30.428C29.1373 30.0267 28.666 29.826 28.106 29.826C27.546 29.826 27.0746 30.0267 26.692 30.428C26.3186 30.82 26.132 31.3847 26.132 32.122C26.132 32.8593 26.314 33.4287 26.678 33.83C27.0513 34.222 27.518 34.418 28.078 34.418ZM35.5217 29.448C35.7737 29.0373 36.1004 28.7153 36.5017 28.482C36.9124 28.2487 37.379 28.132 37.9017 28.132V30.19H37.3837C36.7677 30.19 36.301 30.3347 35.9837 30.624C35.6757 30.9133 35.5217 31.4173 35.5217 32.136V36H33.5617V28.244H35.5217V29.448ZM41.5039 29.854V33.606C41.5039 33.8673 41.5645 34.0587 41.6859 34.18C41.8165 34.292 42.0312 34.348 42.3299 34.348H43.2399V36H42.0079C40.3559 36 39.5299 35.1973 39.5299 33.592V29.854H38.6059V28.244H39.5299V26.326H41.5039V28.244H43.2399V29.854H41.5039ZM44.1456 32.094C44.1456 31.31 44.2996 30.6147 44.6076 30.008C44.9249 29.4013 45.3496 28.9347 45.8816 28.608C46.4229 28.2813 47.0249 28.118 47.6876 28.118C48.2663 28.118 48.7703 28.2347 49.1996 28.468C49.6383 28.7013 49.9883 28.9953 50.2496 29.35V28.244H52.2236V36H50.2496V34.866C49.9976 35.23 49.6476 35.5333 49.1996 35.776C48.7609 36.0093 48.2523 36.126 47.6736 36.126C47.0203 36.126 46.4229 35.958 45.8816 35.622C45.3496 35.286 44.9249 34.8147 44.6076 34.208C44.2996 33.592 44.1456 32.8873 44.1456 32.094ZM50.2496 32.122C50.2496 31.646 50.1563 31.24 49.9696 30.904C49.7829 30.5587 49.5309 30.2973 49.2136 30.12C48.8963 29.9333 48.5556 29.84 48.1916 29.84C47.8276 29.84 47.4916 29.9287 47.1836 30.106C46.8756 30.2833 46.6236 30.5447 46.4276 30.89C46.2409 31.226 46.1476 31.6273 46.1476 32.094C46.1476 32.5607 46.2409 32.9713 46.4276 33.326C46.6236 33.6713 46.8756 33.9373 47.1836 34.124C47.5009 34.3107 47.8369 34.404 48.1916 34.404C48.5556 34.404 48.8963 34.3153 49.2136 34.138C49.5309 33.9513 49.7829 33.69 49.9696 33.354C50.1563 33.0087 50.2496 32.598 50.2496 32.122ZM56.0979 29.448C56.3499 29.0373 56.6765 28.7153 57.0779 28.482C57.4885 28.2487 57.9552 28.132 58.4779 28.132V30.19H57.9599C57.3439 30.19 56.8772 30.3347 56.5599 30.624C56.2519 30.9133 56.0979 31.4173 56.0979 32.136V36H54.1379V28.244H56.0979V29.448Z" fill="#00CFC3"/>
    <path d="M21.4165 19.3333C20.9498 19.3333 20.5415 19.1583 20.1915 18.8083C19.8415 18.4583 19.6665 18.05 19.6665 17.5833V13.4125H21.4165V17.5833H36.5832V13.4125H38.3332V17.5833C38.3332 18.05 38.1582 18.4583 37.8082 18.8083C37.4582 19.1583 37.0498 19.3333 36.5832 19.3333H21.4165ZM28.9998 14.8708L23.3707 9.24163L24.6248 7.98746L28.1248 11.4875V0.666626H29.8748V11.4875L33.3748 7.98746L34.629 9.24163L28.9998 14.8708Z" fill="#00CFC3"/>
</svg>
