<svg width="225" height="255" viewBox="0 0 225 255" fill="none" xmlns="http://www.w3.org/2000/svg">
    <path d="M225 0C151.408 3.6193 145.375 97.118 146.582 138.137C147.547 180.121 137.534 229.56 121.247 229.223C159.853 232.842 215.952 217.158 225 149.598V0Z" fill="url(#paint0_linear_27_233)"/>
    <path d="M20.5094 99.5309C36.7963 53.6864 74.7989 55.496 94.1019 69.37C77.2118 69.37 79.1919 158.646 76.0054 207.507C72.3861 263.003 21.1126 258.78 0 247.319C23.5255 243.7 25.518 204.846 20.5094 152.614C17.2702 118.834 17.4933 109.182 20.5094 99.5309Z" fill="url(#paint1_linear_27_233)"/>
    <path d="M146.582 138.137C136.448 141.032 107.373 93.4987 94.1019 69.37C76.6086 60.3218 77.815 161.662 76.0054 206.903C91.4477 223.794 112.198 228.82 120.643 229.223C141.756 231.032 147.185 168.298 146.582 138.137Z" fill="url(#paint2_linear_27_233)"/>
    <path d="M224.99 112.158C221.608 153.238 171.251 157.652 146.495 154.724C144.684 23.6478 195.403 1.3513 224.99 0V112.158Z" fill="#002321" fill-opacity="0.2"/>
    <path d="M188.204 142.433V12.0644C169.504 26.2349 142.962 58.5121 146.582 160.146C145.375 177.346 142.359 194.839 136.93 214.142C188.204 203.887 187.399 163.453 188.204 142.433Z" fill="#002321" fill-opacity="0.2"/>
    <path d="M19.9061 141.756C29.5575 176.501 61.3269 199.665 76.0052 206.903C75.6031 157.841 78.5387 61.6485 93.4985 69.3697C54.2895 44.6375 28.4237 75.1727 19.9061 101.943C15.6836 115.214 20.8078 144.772 19.9061 141.756Z" fill="#0A1128" fill-opacity="0.2"/>
    <path d="M144.772 174.933C107.131 173.485 84.8525 138.137 78.4182 120.643C82.0375 71.1796 89.8794 66.3541 94.1019 69.3701C120.04 114.611 137.534 139.343 146.582 138.137C147.064 154.062 145.576 169.303 144.772 174.933Z" fill="#00645E" fill-opacity="0.2"/>
    <path d="M22.3189 207.507C57.3055 200.871 50.6701 115.214 42.8282 68.1635C31.9705 76.0054 15.7565 94.6395 18.6997 128.485C21.1126 156.233 24.1285 181.568 22.3189 207.507Z" fill="#002321" fill-opacity="0.2"/>
    <defs>
        <linearGradient id="paint0_linear_27_233" x1="173.123" y1="0" x2="173.123" y2="229.707" gradientUnits="userSpaceOnUse">
            <stop stop-color="#006963"/>
            <stop offset="1" stop-color="#00CFC3"/>
        </linearGradient>
        <linearGradient id="paint1_linear_27_233" x1="46.4477" y1="60.3095" x2="46.4477" y2="254.443" gradientUnits="userSpaceOnUse">
            <stop stop-color="#006963"/>
            <stop offset="1" stop-color="#00CFC3"/>
        </linearGradient>
        <linearGradient id="paint2_linear_27_233" x1="111.316" y1="68.8017" x2="111.316" y2="229.261" gradientUnits="userSpaceOnUse">
            <stop/>
            <stop offset="1" stop-color="#00FFF0"/>
        </linearGradient>
    </defs>
</svg>
