<svg width="64" height="89" viewBox="0 0 64 89" fill="none" xmlns="http://www.w3.org/2000/svg">
    <path d="M45.2999 38V31.95H39.2999V28.95H45.2999V22.95H48.2999V28.95H54.2999V31.95H48.2999V38H45.2999ZM14.2 31.95V19.1H11.7V16.1L13.9 6H44L46.25 16.35V19.1H43.7999V27.45H40.7999V19.1H30V31.95H14.2ZM17.2 28.95H27V19.1H17.2V28.95ZM14.7 16.1H43.2999H14.7ZM13.9 3V0H44.0499V3H13.9ZM14.7 16.1H43.2999L41.75 9H16.25L14.7 16.1Z" fill="#9297A6"/>
    <path d="M8.62109 51.138H4.72909L4.08509 53H2.02709L5.54109 43.214H7.82309L11.3371 53H9.26509L8.62109 51.138ZM8.08909 49.57L6.67509 45.482L5.26109 49.57H8.08909ZM15.6186 53.126C14.9839 53.126 14.4146 53.014 13.9106 52.79C13.4066 52.5567 13.0052 52.244 12.7066 51.852C12.4172 51.46 12.2586 51.026 12.2306 50.55H14.2046C14.2419 50.8487 14.3866 51.096 14.6386 51.292C14.8999 51.488 15.2219 51.586 15.6046 51.586C15.9779 51.586 16.2672 51.5113 16.4726 51.362C16.6872 51.2127 16.7946 51.0213 16.7946 50.788C16.7946 50.536 16.6639 50.3493 16.4026 50.228C16.1506 50.0973 15.7446 49.9573 15.1846 49.808C14.6059 49.668 14.1299 49.5233 13.7566 49.374C13.3926 49.2247 13.0752 48.996 12.8046 48.688C12.5432 48.38 12.4126 47.9647 12.4126 47.442C12.4126 47.0127 12.5339 46.6207 12.7766 46.266C13.0286 45.9113 13.3832 45.6313 13.8406 45.426C14.3072 45.2207 14.8532 45.118 15.4786 45.118C16.4026 45.118 17.1399 45.3513 17.6906 45.818C18.2412 46.2753 18.5446 46.896 18.6006 47.68H16.7246C16.6966 47.372 16.5659 47.1293 16.3326 46.952C16.1086 46.7653 15.8052 46.672 15.4226 46.672C15.0679 46.672 14.7926 46.7373 14.5966 46.868C14.4099 46.9987 14.3166 47.1807 14.3166 47.414C14.3166 47.6753 14.4472 47.876 14.7086 48.016C14.9699 48.1467 15.3759 48.282 15.9266 48.422C16.4866 48.562 16.9486 48.7067 17.3126 48.856C17.6766 49.0053 17.9892 49.2387 18.2506 49.556C18.5212 49.864 18.6612 50.2747 18.6706 50.788C18.6706 51.236 18.5446 51.6373 18.2926 51.992C18.0499 52.3467 17.6952 52.6267 17.2286 52.832C16.7712 53.028 16.2346 53.126 15.6186 53.126ZM23.2475 53.126C22.6128 53.126 22.0435 53.014 21.5395 52.79C21.0355 52.5567 20.6341 52.244 20.3355 51.852C20.0461 51.46 19.8875 51.026 19.8595 50.55H21.8335C21.8708 50.8487 22.0155 51.096 22.2675 51.292C22.5288 51.488 22.8508 51.586 23.2335 51.586C23.6068 51.586 23.8961 51.5113 24.1015 51.362C24.3161 51.2127 24.4235 51.0213 24.4235 50.788C24.4235 50.536 24.2928 50.3493 24.0315 50.228C23.7795 50.0973 23.3735 49.9573 22.8135 49.808C22.2348 49.668 21.7588 49.5233 21.3855 49.374C21.0215 49.2247 20.7041 48.996 20.4335 48.688C20.1721 48.38 20.0415 47.9647 20.0415 47.442C20.0415 47.0127 20.1628 46.6207 20.4055 46.266C20.6575 45.9113 21.0121 45.6313 21.4695 45.426C21.9361 45.2207 22.4821 45.118 23.1075 45.118C24.0315 45.118 24.7688 45.3513 25.3195 45.818C25.8701 46.2753 26.1735 46.896 26.2295 47.68H24.3535C24.3255 47.372 24.1948 47.1293 23.9615 46.952C23.7375 46.7653 23.4341 46.672 23.0515 46.672C22.6968 46.672 22.4215 46.7373 22.2255 46.868C22.0388 46.9987 21.9455 47.1807 21.9455 47.414C21.9455 47.6753 22.0761 47.876 22.3375 48.016C22.5988 48.1467 23.0048 48.282 23.5555 48.422C24.1155 48.562 24.5775 48.7067 24.9415 48.856C25.3055 49.0053 25.6181 49.2387 25.8795 49.556C26.1501 49.864 26.2901 50.2747 26.2995 50.788C26.2995 51.236 26.1735 51.6373 25.9215 51.992C25.6788 52.3467 25.3241 52.6267 24.8575 52.832C24.4001 53.028 23.8635 53.126 23.2475 53.126ZM31.3524 53.126C30.6057 53.126 29.9337 52.9627 29.3364 52.636C28.739 52.3 28.2677 51.8287 27.9224 51.222C27.5864 50.6153 27.4184 49.9153 27.4184 49.122C27.4184 48.3287 27.591 47.6287 27.9364 47.022C28.291 46.4153 28.7717 45.9487 29.3784 45.622C29.985 45.286 30.6617 45.118 31.4084 45.118C32.155 45.118 32.8317 45.286 33.4384 45.622C34.045 45.9487 34.5211 46.4153 34.8664 47.022C35.221 47.6287 35.3984 48.3287 35.3984 49.122C35.3984 49.9153 35.2164 50.6153 34.8524 51.222C34.4977 51.8287 34.0124 52.3 33.3964 52.636C32.7897 52.9627 32.1084 53.126 31.3524 53.126ZM31.3524 51.418C31.707 51.418 32.0384 51.334 32.3464 51.166C32.6637 50.9887 32.9157 50.7273 33.1024 50.382C33.289 50.0367 33.3824 49.6167 33.3824 49.122C33.3824 48.3847 33.1864 47.82 32.7944 47.428C32.4117 47.0267 31.9404 46.826 31.3804 46.826C30.8204 46.826 30.349 47.0267 29.9664 47.428C29.593 47.82 29.4064 48.3847 29.4064 49.122C29.4064 49.8593 29.5884 50.4287 29.9524 50.83C30.3257 51.222 30.7924 51.418 31.3524 51.418ZM36.3321 49.122C36.3321 48.3193 36.4955 47.6193 36.8221 47.022C37.1488 46.4153 37.6015 45.9487 38.1801 45.622C38.7588 45.286 39.4215 45.118 40.1681 45.118C41.1295 45.118 41.9228 45.3607 42.5481 45.846C43.1828 46.322 43.6075 46.994 43.8221 47.862H41.7081C41.5961 47.526 41.4048 47.2647 41.1341 47.078C40.8728 46.882 40.5461 46.784 40.1541 46.784C39.5941 46.784 39.1508 46.9893 38.8241 47.4C38.4975 47.8013 38.3341 48.3753 38.3341 49.122C38.3341 49.8593 38.4975 50.4333 38.8241 50.844C39.1508 51.2453 39.5941 51.446 40.1541 51.446C40.9475 51.446 41.4655 51.0913 41.7081 50.382H43.8221C43.6075 51.222 43.1828 51.8893 42.5481 52.384C41.9135 52.8787 41.1201 53.126 40.1681 53.126C39.4215 53.126 38.7588 52.9627 38.1801 52.636C37.6015 52.3 37.1488 51.8333 36.8221 51.236C36.4955 50.6293 36.3321 49.9247 36.3321 49.122ZM46.252 44.32C45.9067 44.32 45.6173 44.2127 45.384 43.998C45.16 43.774 45.048 43.4987 45.048 43.172C45.048 42.8453 45.16 42.5747 45.384 42.36C45.6173 42.136 45.9067 42.024 46.252 42.024C46.5973 42.024 46.882 42.136 47.106 42.36C47.3393 42.5747 47.456 42.8453 47.456 43.172C47.456 43.4987 47.3393 43.774 47.106 43.998C46.882 44.2127 46.5973 44.32 46.252 44.32ZM47.218 45.244V53H45.258V45.244H47.218ZM48.6505 49.094C48.6505 48.31 48.8045 47.6147 49.1125 47.008C49.4298 46.4013 49.8545 45.9347 50.3865 45.608C50.9278 45.2813 51.5298 45.118 52.1925 45.118C52.7711 45.118 53.2751 45.2347 53.7045 45.468C54.1431 45.7013 54.4931 45.9953 54.7545 46.35V45.244H56.7285V53H54.7545V51.866C54.5025 52.23 54.1525 52.5333 53.7045 52.776C53.2658 53.0093 52.7571 53.126 52.1785 53.126C51.5251 53.126 50.9278 52.958 50.3865 52.622C49.8545 52.286 49.4298 51.8147 49.1125 51.208C48.8045 50.592 48.6505 49.8873 48.6505 49.094ZM54.7545 49.122C54.7545 48.646 54.6611 48.24 54.4745 47.904C54.2878 47.5587 54.0358 47.2973 53.7185 47.12C53.4011 46.9333 53.0605 46.84 52.6965 46.84C52.3325 46.84 51.9965 46.9287 51.6885 47.106C51.3805 47.2833 51.1285 47.5447 50.9325 47.89C50.7458 48.226 50.6525 48.6273 50.6525 49.094C50.6525 49.5607 50.7458 49.9713 50.9325 50.326C51.1285 50.6713 51.3805 50.9373 51.6885 51.124C52.0058 51.3107 52.3418 51.404 52.6965 51.404C53.0605 51.404 53.4011 51.3153 53.7185 51.138C54.0358 50.9513 54.2878 50.69 54.4745 50.354C54.6611 50.0087 54.7545 49.598 54.7545 49.122ZM60.6028 46.448C60.8548 46.0373 61.1814 45.7153 61.5828 45.482C61.9934 45.2487 62.4601 45.132 62.9828 45.132V47.19H62.4648C61.8488 47.19 61.3821 47.3347 61.0648 47.624C60.7568 47.9133 60.6028 48.4173 60.6028 49.136V53H58.6428V45.244H60.6028V46.448ZM19.7376 61.132C20.6616 61.132 21.4083 61.426 21.9776 62.014C22.547 62.5927 22.8316 63.4047 22.8316 64.45V69H20.8716V64.716C20.8716 64.1 20.7176 63.6287 20.4096 63.302C20.1016 62.966 19.6816 62.798 19.1496 62.798C18.6083 62.798 18.179 62.966 17.8616 63.302C17.5536 63.6287 17.3996 64.1 17.3996 64.716V69H15.4396V61.244H17.3996V62.21C17.661 61.874 17.9923 61.6127 18.3936 61.426C18.8043 61.23 19.2523 61.132 19.7376 61.132ZM28.1395 69.126C27.3928 69.126 26.7208 68.9627 26.1235 68.636C25.5262 68.3 25.0548 67.8287 24.7095 67.222C24.3735 66.6153 24.2055 65.9153 24.2055 65.122C24.2055 64.3287 24.3782 63.6287 24.7235 63.022C25.0782 62.4153 25.5588 61.9487 26.1655 61.622C26.7722 61.286 27.4488 61.118 28.1955 61.118C28.9422 61.118 29.6188 61.286 30.2255 61.622C30.8322 61.9487 31.3082 62.4153 31.6535 63.022C32.0082 63.6287 32.1855 64.3287 32.1855 65.122C32.1855 65.9153 32.0035 66.6153 31.6395 67.222C31.2848 67.8287 30.7995 68.3 30.1835 68.636C29.5768 68.9627 28.8955 69.126 28.1395 69.126ZM28.1395 67.418C28.4942 67.418 28.8255 67.334 29.1335 67.166C29.4508 66.9887 29.7028 66.7273 29.8895 66.382C30.0762 66.0367 30.1695 65.6167 30.1695 65.122C30.1695 64.3847 29.9735 63.82 29.5815 63.428C29.1988 63.0267 28.7275 62.826 28.1675 62.826C27.6075 62.826 27.1362 63.0267 26.7535 63.428C26.3802 63.82 26.1935 64.3847 26.1935 65.122C26.1935 65.8593 26.3755 66.4287 26.7395 66.83C27.1128 67.222 27.5795 67.418 28.1395 67.418ZM36.8572 67.194L38.8172 61.244H40.9032L38.0332 69H35.6532L32.7972 61.244H34.8972L36.8572 67.194ZM41.5001 65.094C41.5001 64.31 41.6541 63.6147 41.9621 63.008C42.2794 62.4013 42.7041 61.9347 43.2361 61.608C43.7774 61.2813 44.3794 61.118 45.0421 61.118C45.6208 61.118 46.1248 61.2347 46.5541 61.468C46.9928 61.7013 47.3428 61.9953 47.6041 62.35V61.244H49.5781V69H47.6041V67.866C47.3521 68.23 47.0021 68.5333 46.5541 68.776C46.1154 69.0093 45.6068 69.126 45.0281 69.126C44.3748 69.126 43.7774 68.958 43.2361 68.622C42.7041 68.286 42.2794 67.8147 41.9621 67.208C41.6541 66.592 41.5001 65.8873 41.5001 65.094ZM47.6041 65.122C47.6041 64.646 47.5108 64.24 47.3241 63.904C47.1374 63.5587 46.8854 63.2973 46.5681 63.12C46.2508 62.9333 45.9101 62.84 45.5461 62.84C45.1821 62.84 44.8461 62.9287 44.5381 63.106C44.2301 63.2833 43.9781 63.5447 43.7821 63.89C43.5954 64.226 43.5021 64.6273 43.5021 65.094C43.5021 65.5607 43.5954 65.9713 43.7821 66.326C43.9781 66.6713 44.2301 66.9373 44.5381 67.124C44.8554 67.3107 45.1914 67.404 45.5461 67.404C45.9101 67.404 46.2508 67.3153 46.5681 67.138C46.8854 66.9513 47.1374 66.69 47.3241 66.354C47.5108 66.0087 47.6041 65.598 47.6041 65.122ZM8.5676 80.954C8.5676 81.234 8.54894 81.486 8.5116 81.71H2.8416C2.88827 82.27 3.08427 82.7087 3.4296 83.026C3.77494 83.3433 4.1996 83.502 4.7036 83.502C5.4316 83.502 5.9496 83.1893 6.2576 82.564H8.3716C8.1476 83.3107 7.71827 83.9267 7.0836 84.412C6.44894 84.888 5.6696 85.126 4.7456 85.126C3.99894 85.126 3.32694 84.9627 2.7296 84.636C2.1416 84.3 1.6796 83.8287 1.3436 83.222C1.01693 82.6153 0.853602 81.9153 0.853602 81.122C0.853602 80.3193 1.01693 79.6147 1.3436 79.008C1.67027 78.4013 2.1276 77.9347 2.7156 77.608C3.3036 77.2813 3.98027 77.118 4.7456 77.118C5.48294 77.118 6.14094 77.2767 6.7196 77.594C7.3076 77.9113 7.76027 78.364 8.0776 78.952C8.40427 79.5307 8.5676 80.198 8.5676 80.954ZM6.5376 80.394C6.52827 79.89 6.34627 79.4887 5.9916 79.19C5.63694 78.882 5.20294 78.728 4.6896 78.728C4.20427 78.728 3.7936 78.8773 3.4576 79.176C3.13094 79.4653 2.93027 79.8713 2.8556 80.394H6.5376ZM19.6302 77.132C20.5822 77.132 21.3476 77.426 21.9262 78.014C22.5142 78.5927 22.8082 79.4047 22.8082 80.45V85H20.8482V80.716C20.8482 80.1093 20.6942 79.6473 20.3862 79.33C20.0782 79.0033 19.6582 78.84 19.1262 78.84C18.5942 78.84 18.1696 79.0033 17.8522 79.33C17.5442 79.6473 17.3902 80.1093 17.3902 80.716V85H15.4302V80.716C15.4302 80.1093 15.2762 79.6473 14.9682 79.33C14.6602 79.0033 14.2402 78.84 13.7082 78.84C13.1669 78.84 12.7376 79.0033 12.4202 79.33C12.1122 79.6473 11.9582 80.1093 11.9582 80.716V85H9.99823V77.244H11.9582V78.182C12.2102 77.8553 12.5322 77.5987 12.9242 77.412C13.3256 77.2253 13.7642 77.132 14.2402 77.132C14.8469 77.132 15.3882 77.2627 15.8642 77.524C16.3402 77.776 16.7089 78.14 16.9702 78.616C17.2222 78.168 17.5862 77.8087 18.0622 77.538C18.5476 77.2673 19.0702 77.132 19.6302 77.132ZM26.6281 78.364C26.8801 78.0093 27.2255 77.7153 27.6641 77.482C28.1121 77.2393 28.6208 77.118 29.1901 77.118C29.8528 77.118 30.4501 77.2813 30.9821 77.608C31.5235 77.9347 31.9481 78.4013 32.2561 79.008C32.5735 79.6053 32.7321 80.3007 32.7321 81.094C32.7321 81.8873 32.5735 82.592 32.2561 83.208C31.9481 83.8147 31.5235 84.286 30.9821 84.622C30.4501 84.958 29.8528 85.126 29.1901 85.126C28.6208 85.126 28.1168 85.0093 27.6781 84.776C27.2488 84.5427 26.8988 84.2487 26.6281 83.894V88.696H24.6681V77.244H26.6281V78.364ZM30.7301 81.094C30.7301 80.6273 30.6321 80.226 30.4361 79.89C30.2495 79.5447 29.9975 79.2833 29.6801 79.106C29.3721 78.9287 29.0361 78.84 28.6721 78.84C28.3175 78.84 27.9815 78.9333 27.6641 79.12C27.3561 79.2973 27.1041 79.5587 26.9081 79.904C26.7215 80.2493 26.6281 80.6553 26.6281 81.122C26.6281 81.5887 26.7215 81.9947 26.9081 82.34C27.1041 82.6853 27.3561 82.9513 27.6641 83.138C27.9815 83.3153 28.3175 83.404 28.6721 83.404C29.0361 83.404 29.3721 83.3107 29.6801 83.124C29.9975 82.9373 30.2495 82.6713 30.4361 82.326C30.6321 81.9807 30.7301 81.57 30.7301 81.094ZM36.1164 78.448C36.3684 78.0373 36.6951 77.7153 37.0964 77.482C37.5071 77.2487 37.9738 77.132 38.4964 77.132V79.19H37.9784C37.3624 79.19 36.8958 79.3347 36.5784 79.624C36.2704 79.9133 36.1164 80.4173 36.1164 81.136V85H34.1564V77.244H36.1164V78.448ZM47.0266 80.954C47.0266 81.234 47.0079 81.486 46.9706 81.71H41.3006C41.3473 82.27 41.5433 82.7087 41.8886 83.026C42.2339 83.3433 42.6586 83.502 43.1626 83.502C43.8906 83.502 44.4086 83.1893 44.7166 82.564H46.8306C46.6066 83.3107 46.1773 83.9267 45.5426 84.412C44.9079 84.888 44.1286 85.126 43.2046 85.126C42.4579 85.126 41.7859 84.9627 41.1886 84.636C40.6006 84.3 40.1386 83.8287 39.8026 83.222C39.4759 82.6153 39.3126 81.9153 39.3126 81.122C39.3126 80.3193 39.4759 79.6147 39.8026 79.008C40.1293 78.4013 40.5866 77.9347 41.1746 77.608C41.7626 77.2813 42.4393 77.118 43.2046 77.118C43.9419 77.118 44.5999 77.2767 45.1786 77.594C45.7666 77.9113 46.2193 78.364 46.5366 78.952C46.8633 79.5307 47.0266 80.198 47.0266 80.954ZM44.9966 80.394C44.9873 79.89 44.8053 79.4887 44.4506 79.19C44.0959 78.882 43.6619 78.728 43.1486 78.728C42.6633 78.728 42.2526 78.8773 41.9166 79.176C41.5899 79.4653 41.3893 79.8713 41.3146 80.394H44.9966ZM51.4252 85.126C50.7905 85.126 50.2212 85.014 49.7172 84.79C49.2132 84.5567 48.8119 84.244 48.5132 83.852C48.2239 83.46 48.0652 83.026 48.0372 82.55H50.0112C50.0485 82.8487 50.1932 83.096 50.4452 83.292C50.7065 83.488 51.0285 83.586 51.4112 83.586C51.7845 83.586 52.0739 83.5113 52.2792 83.362C52.4939 83.2127 52.6012 83.0213 52.6012 82.788C52.6012 82.536 52.4705 82.3493 52.2092 82.228C51.9572 82.0973 51.5512 81.9573 50.9912 81.808C50.4125 81.668 49.9365 81.5233 49.5632 81.374C49.1992 81.2247 48.8819 80.996 48.6112 80.688C48.3499 80.38 48.2192 79.9647 48.2192 79.442C48.2192 79.0127 48.3405 78.6207 48.5832 78.266C48.8352 77.9113 49.1899 77.6313 49.6472 77.426C50.1139 77.2207 50.6599 77.118 51.2852 77.118C52.2092 77.118 52.9465 77.3513 53.4972 77.818C54.0479 78.2753 54.3512 78.896 54.4072 79.68H52.5312C52.5032 79.372 52.3725 79.1293 52.1392 78.952C51.9152 78.7653 51.6119 78.672 51.2292 78.672C50.8745 78.672 50.5992 78.7373 50.4032 78.868C50.2165 78.9987 50.1232 79.1807 50.1232 79.414C50.1232 79.6753 50.2539 79.876 50.5152 80.016C50.7765 80.1467 51.1825 80.282 51.7332 80.422C52.2932 80.562 52.7552 80.7067 53.1192 80.856C53.4832 81.0053 53.7959 81.2387 54.0572 81.556C54.3279 81.864 54.4679 82.2747 54.4772 82.788C54.4772 83.236 54.3512 83.6373 54.0992 83.992C53.8565 84.3467 53.5019 84.6267 53.0352 84.832C52.5779 85.028 52.0412 85.126 51.4252 85.126ZM55.5821 81.094C55.5821 80.31 55.7361 79.6147 56.0441 79.008C56.3615 78.4013 56.7861 77.9347 57.3181 77.608C57.8595 77.2813 58.4615 77.118 59.1241 77.118C59.7028 77.118 60.2068 77.2347 60.6361 77.468C61.0748 77.7013 61.4248 77.9953 61.6861 78.35V77.244H63.6601V85H61.6861V83.866C61.4341 84.23 61.0841 84.5333 60.6361 84.776C60.1975 85.0093 59.6888 85.126 59.1101 85.126C58.4568 85.126 57.8595 84.958 57.3181 84.622C56.7861 84.286 56.3615 83.8147 56.0441 83.208C55.7361 82.592 55.5821 81.8873 55.5821 81.094ZM61.6861 81.122C61.6861 80.646 61.5928 80.24 61.4061 79.904C61.2195 79.5587 60.9675 79.2973 60.6501 79.12C60.3328 78.9333 59.9921 78.84 59.6281 78.84C59.2641 78.84 58.9281 78.9287 58.6201 79.106C58.3121 79.2833 58.0601 79.5447 57.8641 79.89C57.6775 80.226 57.5841 80.6273 57.5841 81.094C57.5841 81.5607 57.6775 81.9713 57.8641 82.326C58.0601 82.6713 58.3121 82.9373 58.6201 83.124C58.9375 83.3107 59.2735 83.404 59.6281 83.404C59.9921 83.404 60.3328 83.3153 60.6501 83.138C60.9675 82.9513 61.2195 82.69 61.4061 82.354C61.5928 82.0087 61.6861 81.598 61.6861 81.122Z" fill="#9297A6"/>
</svg>
