<svg width="67" height="78" viewBox="0 0 67 78" fill="none" xmlns="http://www.w3.org/2000/svg">
<path d="M46.2999 46V39.95H40.2999V36.95H46.2999V30.95H49.2999V36.95H55.2999V39.95H49.2999V46H46.2999ZM15.2 39.95V27.1H12.7V24.1L14.9 14H45L47.25 24.35V27.1H44.7999V35.45H41.7999V27.1H31V39.95H15.2ZM18.2 36.95H28V27.1H18.2V36.95ZM15.7 24.1H44.2999H15.7ZM14.9 11V8H45.0499V11H14.9ZM15.7 24.1H44.2999L42.75 17H17.25L15.7 24.1Z" fill="#9297A6"/>
<path d="M24.5584 61H22.5984L18.1604 54.294V61H16.2004V51.214H18.1604L22.5984 57.934V51.214H24.5584V61ZM29.9393 61.126C29.1926 61.126 28.5206 60.9627 27.9233 60.636C27.326 60.3 26.8546 59.8287 26.5093 59.222C26.1733 58.6153 26.0053 57.9153 26.0053 57.122C26.0053 56.3287 26.178 55.6287 26.5233 55.022C26.878 54.4153 27.3586 53.9487 27.9653 53.622C28.572 53.286 29.2486 53.118 29.9953 53.118C30.742 53.118 31.4186 53.286 32.0253 53.622C32.632 53.9487 33.108 54.4153 33.4533 55.022C33.808 55.6287 33.9853 56.3287 33.9853 57.122C33.9853 57.9153 33.8033 58.6153 33.4393 59.222C33.0846 59.8287 32.5993 60.3 31.9833 60.636C31.3766 60.9627 30.6953 61.126 29.9393 61.126ZM29.9393 59.418C30.294 59.418 30.6253 59.334 30.9333 59.166C31.2506 58.9887 31.5026 58.7273 31.6893 58.382C31.876 58.0367 31.9693 57.6167 31.9693 57.122C31.9693 56.3847 31.7733 55.82 31.3813 55.428C30.9986 55.0267 30.5273 54.826 29.9673 54.826C29.4073 54.826 28.936 55.0267 28.5533 55.428C28.18 55.82 27.9933 56.3847 27.9933 57.122C27.9933 57.8593 28.1753 58.4287 28.5393 58.83C28.9126 59.222 29.3793 59.418 29.9393 59.418ZM38.657 59.194L40.617 53.244H42.703L39.833 61H37.453L34.597 53.244H36.697L38.657 59.194ZM47.2479 61.126C46.5012 61.126 45.8292 60.9627 45.2319 60.636C44.6346 60.3 44.1632 59.8287 43.8179 59.222C43.4819 58.6153 43.3139 57.9153 43.3139 57.122C43.3139 56.3287 43.4866 55.6287 43.8319 55.022C44.1866 54.4153 44.6672 53.9487 45.2739 53.622C45.8806 53.286 46.5572 53.118 47.3039 53.118C48.0506 53.118 48.7272 53.286 49.3339 53.622C49.9406 53.9487 50.4166 54.4153 50.7619 55.022C51.1166 55.6287 51.2939 56.3287 51.2939 57.122C51.2939 57.9153 51.1119 58.6153 50.7479 59.222C50.3932 59.8287 49.9079 60.3 49.2919 60.636C48.6852 60.9627 48.0039 61.126 47.2479 61.126ZM47.2479 59.418C47.6026 59.418 47.9339 59.334 48.2419 59.166C48.5592 58.9887 48.8112 58.7273 48.9979 58.382C49.1846 58.0367 49.2779 57.6167 49.2779 57.122C49.2779 56.3847 49.0819 55.82 48.6899 55.428C48.3072 55.0267 47.8359 54.826 47.2759 54.826C46.7159 54.826 46.2446 55.0267 45.8619 55.428C45.4886 55.82 45.3019 56.3847 45.3019 57.122C45.3019 57.8593 45.4839 58.4287 45.8479 58.83C46.2212 59.222 46.6879 59.418 47.2479 59.418ZM8.13206 72.954C8.13206 73.234 8.11339 73.486 8.07606 73.71H2.40605C2.45272 74.27 2.64872 74.7087 2.99405 75.026C3.33939 75.3433 3.76405 75.502 4.26806 75.502C4.99605 75.502 5.51405 75.1893 5.82206 74.564H7.93606C7.71205 75.3107 7.28272 75.9267 6.64805 76.412C6.01339 76.888 5.23406 77.126 4.31005 77.126C3.56339 77.126 2.89139 76.9627 2.29405 76.636C1.70605 76.3 1.24405 75.8287 0.908055 75.222C0.581388 74.6153 0.418055 73.9153 0.418055 73.122C0.418055 72.3193 0.581388 71.6147 0.908055 71.008C1.23472 70.4013 1.69205 69.9347 2.28005 69.608C2.86805 69.2813 3.54472 69.118 4.31005 69.118C5.04739 69.118 5.70539 69.2767 6.28405 69.594C6.87206 69.9113 7.32472 70.364 7.64206 70.952C7.96872 71.5307 8.13206 72.198 8.13206 72.954ZM6.10205 72.394C6.09272 71.89 5.91072 71.4887 5.55605 71.19C5.20139 70.882 4.76739 70.728 4.25405 70.728C3.76872 70.728 3.35805 70.8773 3.02205 71.176C2.69539 71.4653 2.49472 71.8713 2.42005 72.394H6.10205ZM12.5307 77.126C11.896 77.126 11.3267 77.014 10.8227 76.79C10.3187 76.5567 9.91735 76.244 9.61868 75.852C9.32935 75.46 9.17068 75.026 9.14268 74.55H11.1167C11.154 74.8487 11.2987 75.096 11.5507 75.292C11.812 75.488 12.134 75.586 12.5167 75.586C12.89 75.586 13.1793 75.5113 13.3847 75.362C13.5993 75.2127 13.7067 75.0213 13.7067 74.788C13.7067 74.536 13.576 74.3493 13.3147 74.228C13.0627 74.0973 12.6567 73.9573 12.0967 73.808C11.518 73.668 11.042 73.5233 10.6687 73.374C10.3047 73.2247 9.98735 72.996 9.71668 72.688C9.45535 72.38 9.32468 71.9647 9.32468 71.442C9.32468 71.0127 9.44601 70.6207 9.68868 70.266C9.94068 69.9113 10.2953 69.6313 10.7527 69.426C11.2193 69.2207 11.7653 69.118 12.3907 69.118C13.3147 69.118 14.052 69.3513 14.6027 69.818C15.1533 70.2753 15.4567 70.896 15.5127 71.68H13.6367C13.6087 71.372 13.478 71.1293 13.2447 70.952C13.0207 70.7653 12.7173 70.672 12.3347 70.672C11.98 70.672 11.7047 70.7373 11.5087 70.868C11.322 70.9987 11.2287 71.1807 11.2287 71.414C11.2287 71.6753 11.3593 71.876 11.6207 72.016C11.882 72.1467 12.288 72.282 12.8387 72.422C13.3987 72.562 13.8607 72.7067 14.2247 72.856C14.5887 73.0053 14.9013 73.2387 15.1627 73.556C15.4333 73.864 15.5733 74.2747 15.5827 74.788C15.5827 75.236 15.4567 75.6373 15.2047 75.992C14.962 76.3467 14.6073 76.6267 14.1407 76.832C13.6833 77.028 13.1467 77.126 12.5307 77.126ZM16.6876 73.122C16.6876 72.3193 16.8509 71.6193 17.1776 71.022C17.5043 70.4153 17.9569 69.9487 18.5356 69.622C19.1143 69.286 19.7769 69.118 20.5236 69.118C21.4849 69.118 22.2783 69.3607 22.9036 69.846C23.5383 70.322 23.9629 70.994 24.1776 71.862H22.0636C21.9516 71.526 21.7603 71.2647 21.4896 71.078C21.2283 70.882 20.9016 70.784 20.5096 70.784C19.9496 70.784 19.5063 70.9893 19.1796 71.4C18.8529 71.8013 18.6896 72.3753 18.6896 73.122C18.6896 73.8593 18.8529 74.4333 19.1796 74.844C19.5063 75.2453 19.9496 75.446 20.5096 75.446C21.3029 75.446 21.8209 75.0913 22.0636 74.382H24.1776C23.9629 75.222 23.5383 75.8893 22.9036 76.384C22.2689 76.8787 21.4756 77.126 20.5236 77.126C19.7769 77.126 19.1143 76.9627 18.5356 76.636C17.9569 76.3 17.5043 75.8333 17.1776 75.236C16.8509 74.6293 16.6876 73.9247 16.6876 73.122ZM27.5735 70.448C27.8255 70.0373 28.1521 69.7153 28.5535 69.482C28.9641 69.2487 29.4308 69.132 29.9535 69.132V71.19H29.4355C28.8195 71.19 28.3528 71.3347 28.0355 71.624C27.7275 71.9133 27.5735 72.4173 27.5735 73.136V77H25.6135V69.244H27.5735V70.448ZM32.2676 68.32C31.9223 68.32 31.633 68.2127 31.3996 67.998C31.1756 67.774 31.0636 67.4987 31.0636 67.172C31.0636 66.8453 31.1756 66.5747 31.3996 66.36C31.633 66.136 31.9223 66.024 32.2676 66.024C32.613 66.024 32.8976 66.136 33.1216 66.36C33.355 66.5747 33.4716 66.8453 33.4716 67.172C33.4716 67.4987 33.355 67.774 33.1216 67.998C32.8976 68.2127 32.613 68.32 32.2676 68.32ZM33.2336 69.244V77H31.2736V69.244H33.2336ZM37.4521 70.854V74.606C37.4521 74.8673 37.5128 75.0587 37.6341 75.18C37.7648 75.292 37.9794 75.348 38.2781 75.348H39.1881V77H37.9561C36.3041 77 35.4781 76.1973 35.4781 74.592V70.854H34.5541V69.244H35.4781V67.326H37.4521V69.244H39.1881V70.854H37.4521ZM44.0418 77.126C43.2952 77.126 42.6232 76.9627 42.0258 76.636C41.4285 76.3 40.9572 75.8287 40.6118 75.222C40.2758 74.6153 40.1078 73.9153 40.1078 73.122C40.1078 72.3287 40.2805 71.6287 40.6258 71.022C40.9805 70.4153 41.4612 69.9487 42.0678 69.622C42.6745 69.286 43.3512 69.118 44.0978 69.118C44.8445 69.118 45.5212 69.286 46.1278 69.622C46.7345 69.9487 47.2105 70.4153 47.5558 71.022C47.9105 71.6287 48.0878 72.3287 48.0878 73.122C48.0878 73.9153 47.9058 74.6153 47.5418 75.222C47.1872 75.8287 46.7018 76.3 46.0858 76.636C45.4792 76.9627 44.7978 77.126 44.0418 77.126ZM44.0418 75.418C44.3965 75.418 44.7278 75.334 45.0358 75.166C45.3532 74.9887 45.6052 74.7273 45.7918 74.382C45.9785 74.0367 46.0718 73.6167 46.0718 73.122C46.0718 72.3847 45.8758 71.82 45.4838 71.428C45.1012 71.0267 44.6298 70.826 44.0698 70.826C43.5098 70.826 43.0385 71.0267 42.6558 71.428C42.2825 71.82 42.0958 72.3847 42.0958 73.122C42.0958 73.8593 42.2778 74.4287 42.6418 74.83C43.0152 75.222 43.4818 75.418 44.0418 75.418ZM45.7078 67.13L42.4878 68.6V67.2L45.7078 65.534V67.13ZM51.4856 70.448C51.7376 70.0373 52.0642 69.7153 52.4656 69.482C52.8762 69.2487 53.3429 69.132 53.8656 69.132V71.19H53.3476C52.7316 71.19 52.2649 71.3347 51.9476 71.624C51.6396 71.9133 51.4856 72.4173 51.4856 73.136V77H49.5256V69.244H51.4856V70.448ZM56.1797 68.32C55.8344 68.32 55.5451 68.2127 55.3117 67.998C55.0877 67.774 54.9757 67.4987 54.9757 67.172C54.9757 66.8453 55.0877 66.5747 55.3117 66.36C55.5451 66.136 55.8344 66.024 56.1797 66.024C56.5251 66.024 56.8097 66.136 57.0337 66.36C57.2671 66.5747 57.3837 66.8453 57.3837 67.172C57.3837 67.4987 57.2671 67.774 57.0337 67.998C56.8097 68.2127 56.5251 68.32 56.1797 68.32ZM57.1457 69.244V77H55.1857V69.244H57.1457ZM62.5262 77.126C61.7795 77.126 61.1075 76.9627 60.5102 76.636C59.9129 76.3 59.4415 75.8287 59.0962 75.222C58.7602 74.6153 58.5922 73.9153 58.5922 73.122C58.5922 72.3287 58.7649 71.6287 59.1102 71.022C59.4649 70.4153 59.9455 69.9487 60.5522 69.622C61.1589 69.286 61.8355 69.118 62.5822 69.118C63.3289 69.118 64.0055 69.286 64.6122 69.622C65.2189 69.9487 65.6949 70.4153 66.0402 71.022C66.3949 71.6287 66.5722 72.3287 66.5722 73.122C66.5722 73.9153 66.3902 74.6153 66.0262 75.222C65.6715 75.8287 65.1862 76.3 64.5702 76.636C63.9635 76.9627 63.2822 77.126 62.5262 77.126ZM62.5262 75.418C62.8809 75.418 63.2122 75.334 63.5202 75.166C63.8375 74.9887 64.0895 74.7273 64.2762 74.382C64.4629 74.0367 64.5562 73.6167 64.5562 73.122C64.5562 72.3847 64.3602 71.82 63.9682 71.428C63.5855 71.0267 63.1142 70.826 62.5542 70.826C61.9942 70.826 61.5229 71.0267 61.1402 71.428C60.7669 71.82 60.5802 72.3847 60.5802 73.122C60.5802 73.8593 60.7622 74.4287 61.1262 74.83C61.4995 75.222 61.9662 75.418 62.5262 75.418Z" fill="#9297A6"/>
</svg>
