<svg width="29" height="47" viewBox="0 0 29 47" fill="none" xmlns="http://www.w3.org/2000/svg">
    <path d="M7 24C6.46667 24 6 23.8 5.6 23.4C5.2 23 5 22.5333 5 22V2C5 1.46667 5.2 1 5.6 0.6C6 0.2 6.46667 0 7 0H16.7V2H7V22H16.7V24H7ZM23.2 17.8333L21.7667 16.4L25.1667 13H13.5V11H25.1L21.7 7.6L23.1333 6.16667L29 12.0333L23.2 17.8333Z" fill="#00CFC3"/>
    <path d="M4.55191 46.098C3.87058 46.098 3.25458 45.9813 2.70391 45.748C2.16258 45.5147 1.73325 45.1787 1.41591 44.74C1.09858 44.3013 0.935247 43.7833 0.925914 43.186H3.02591C3.05391 43.5873 3.19391 43.9047 3.44591 44.138C3.70725 44.3713 4.06191 44.488 4.50991 44.488C4.96725 44.488 5.32658 44.3807 5.58791 44.166C5.84925 43.942 5.97991 43.6527 5.97991 43.298C5.97991 43.0087 5.89125 42.7707 5.71391 42.584C5.53658 42.3973 5.31258 42.2527 5.04191 42.15C4.78058 42.038 4.41658 41.9167 3.94991 41.786C3.31525 41.5993 2.79725 41.4173 2.39591 41.24C2.00391 41.0533 1.66325 40.778 1.37391 40.414C1.09391 40.0407 0.953914 39.546 0.953914 38.93C0.953914 38.3513 1.09858 37.8473 1.38791 37.418C1.67725 36.9887 2.08325 36.662 2.60591 36.438C3.12858 36.2047 3.72591 36.088 4.39791 36.088C5.40591 36.088 6.22258 36.3353 6.84791 36.83C7.48258 37.3153 7.83258 37.9967 7.89791 38.874H5.74191C5.72325 38.538 5.57858 38.2627 5.30791 38.048C5.04658 37.824 4.69658 37.712 4.25791 37.712C3.87525 37.712 3.56725 37.81 3.33391 38.006C3.10991 38.202 2.99791 38.4867 2.99791 38.86C2.99791 39.1213 3.08191 39.3407 3.24991 39.518C3.42725 39.686 3.64191 39.826 3.89391 39.938C4.15525 40.0407 4.51925 40.162 4.98591 40.302C5.62058 40.4887 6.13858 40.6753 6.53991 40.862C6.94125 41.0487 7.28658 41.3287 7.57591 41.702C7.86525 42.0753 8.00991 42.5653 8.00991 43.172C8.00991 43.6947 7.87458 44.18 7.60391 44.628C7.33325 45.076 6.93658 45.4353 6.41391 45.706C5.89125 45.9673 5.27058 46.098 4.55191 46.098ZM9.20516 42.094C9.20516 41.31 9.35916 40.6147 9.66716 40.008C9.9845 39.4013 10.4092 38.9347 10.9412 38.608C11.4825 38.2813 12.0845 38.118 12.7472 38.118C13.3258 38.118 13.8298 38.2347 14.2592 38.468C14.6978 38.7013 15.0478 38.9953 15.3092 39.35V38.244H17.2832V46H15.3092V44.866C15.0572 45.23 14.7072 45.5333 14.2592 45.776C13.8205 46.0093 13.3118 46.126 12.7332 46.126C12.0798 46.126 11.4825 45.958 10.9412 45.622C10.4092 45.286 9.9845 44.8147 9.66716 44.208C9.35916 43.592 9.20516 42.8873 9.20516 42.094ZM15.3092 42.122C15.3092 41.646 15.2158 41.24 15.0292 40.904C14.8425 40.5587 14.5905 40.2973 14.2732 40.12C13.9558 39.9333 13.6152 39.84 13.2512 39.84C12.8872 39.84 12.5512 39.9287 12.2432 40.106C11.9352 40.2833 11.6832 40.5447 11.4872 40.89C11.3005 41.226 11.2072 41.6273 11.2072 42.094C11.2072 42.5607 11.3005 42.9713 11.4872 43.326C11.6832 43.6713 11.9352 43.9373 12.2432 44.124C12.5605 44.3107 12.8965 44.404 13.2512 44.404C13.6152 44.404 13.9558 44.3153 14.2732 44.138C14.5905 43.9513 14.8425 43.69 15.0292 43.354C15.2158 43.0087 15.3092 42.598 15.3092 42.122ZM20.1914 37.32C19.8461 37.32 19.5568 37.2127 19.3234 36.998C19.0994 36.774 18.9874 36.4987 18.9874 36.172C18.9874 35.8453 19.0994 35.5747 19.3234 35.36C19.5568 35.136 19.8461 35.024 20.1914 35.024C20.5368 35.024 20.8214 35.136 21.0454 35.36C21.2788 35.5747 21.3954 35.8453 21.3954 36.172C21.3954 36.4987 21.2788 36.774 21.0454 36.998C20.8214 37.2127 20.5368 37.32 20.1914 37.32ZM21.1574 38.244V46H19.1974V38.244H21.1574ZM25.0539 39.448C25.3059 39.0373 25.6326 38.7153 26.0339 38.482C26.4446 38.2487 26.9113 38.132 27.4339 38.132V40.19H26.9159C26.2999 40.19 25.8333 40.3347 25.5159 40.624C25.2079 40.9133 25.0539 41.4173 25.0539 42.136V46H23.0939V38.244H25.0539V39.448Z" fill="#00CFC3"/>
</svg>
